<?xml version="1.0" encoding="utf-8"?>
<!-- Generator: Adobe Illustrator 17.0.2, SVG Export Plug-In . SVG Version: 6.00 Build 0)  -->
<!DOCTYPE svg PUBLIC "-//W3C//DTD SVG 1.1//EN" "http://www.w3.org/Graphics/SVG/1.1/DTD/svg11.dtd">
<svg version="1.1" id="Layer_1" xmlns="http://www.w3.org/2000/svg" xmlns:xlink="http://www.w3.org/1999/xlink" x="0px" y="0px"
	 width="306.596px" height="234.836px" viewBox="0 0 306.596 234.836" enable-background="new 0 0 306.596 234.836"
	 xml:space="preserve">
<rect x="31.974" y="0" width="241.514" height="234.836"/>
<path fill="#999999" d="M242.994,184.63c0,6.627-5.373,12-12,12H72.467c-6.627,0-12-5.373-12-12V44.341c0-6.627,5.373-12,12-12
	h158.526c6.627,0,12,5.373,12,12V184.63z"/>
<rect x="0" y="0" width="306.596" height="32.341"/>
<rect x="0" y="202.494" width="306.596" height="32.341"/>
<path d="M0,32.341c0,0,31.974-4.876,31.974,22.544s3.935-33.401,3.935-33.401L0,32.341z"/>
<path d="M305.596,32.341c0,0-31.974-4.876-31.974,22.544s-3.935-33.401-3.935-33.401L305.596,32.341z"/>
<path d="M273.242,172.952c0,0-2.066,32.277,25.248,29.884c27.314-2.393-32.931,6.835-32.931,6.835L273.242,172.952z"/>
<path d="M32.158,170.402c0,0,3.122,33.415-24.878,31.846c-27.999-1.569,33.88,5.99,33.88,5.99L32.158,170.402z"/>
<rect x="36.745" y="10.516" fill="#FFFFFF" width="19.443" height="14.457"/>
<rect x="62.627" y="10.516" fill="#FFFFFF" width="19.443" height="14.457"/>
<rect x="88.51" y="10.516" fill="#FFFFFF" width="19.443" height="14.457"/>
<rect x="114.392" y="10.516" fill="#FFFFFF" width="19.443" height="14.457"/>
<rect x="140.275" y="10.516" fill="#FFFFFF" width="19.443" height="14.457"/>
<rect x="166.157" y="10.516" fill="#FFFFFF" width="19.443" height="14.457"/>
<rect x="192.039" y="10.516" fill="#FFFFFF" width="19.443" height="14.457"/>
<rect x="217.922" y="10.516" fill="#FFFFFF" width="19.443" height="14.457"/>
<rect x="243.804" y="10.516" fill="#FFFFFF" width="19.443" height="14.457"/>
<rect x="269.687" y="10.516" fill="#FFFFFF" width="19.443" height="14.457"/>
<rect x="10.862" y="10.516" fill="#FFFFFF" width="19.443" height="14.457"/>
<rect x="36.745" y="208.238" fill="#FFFFFF" width="19.443" height="14.457"/>
<rect x="62.627" y="208.238" fill="#FFFFFF" width="19.443" height="14.457"/>
<rect x="88.51" y="208.238" fill="#FFFFFF" width="19.443" height="14.457"/>
<rect x="114.392" y="208.238" fill="#FFFFFF" width="19.443" height="14.457"/>
<rect x="140.275" y="208.238" fill="#FFFFFF" width="19.443" height="14.457"/>
<rect x="166.157" y="208.238" fill="#FFFFFF" width="19.443" height="14.457"/>
<rect x="192.039" y="208.238" fill="#FFFFFF" width="19.443" height="14.457"/>
<rect x="217.922" y="208.238" fill="#FFFFFF" width="19.443" height="14.457"/>
<rect x="243.804" y="208.238" fill="#FFFFFF" width="19.443" height="14.457"/>
<rect x="269.687" y="208.238" fill="#FFFFFF" width="19.443" height="14.457"/>
<rect x="10.862" y="208.238" fill="#FFFFFF" width="19.443" height="14.457"/>
<g>
	<path d="M144.115,100.23l-7.443,1c-0.444-3.85-1.444-7.183-3-9.999c-1.555-2.813-3.519-5.146-5.888-6.999
		c-2.372-1.851-5.11-3.222-8.221-4.111s-6.482-1.333-10.11-1.333c-5.481,0-9.906,0.927-13.275,2.777
		c-3.371,1.852-5.055,4.852-5.055,8.999c0,2.519,0.814,4.5,2.444,5.944c1.628,1.444,3.777,2.63,6.443,3.555
		c2.667,0.927,5.721,1.686,9.166,2.278c3.444,0.594,6.943,1.241,10.498,1.944c3.555,0.705,7.055,1.594,10.499,2.667
		c3.444,1.074,6.499,2.555,9.166,4.444c2.666,1.889,4.813,4.296,6.443,7.221c1.628,2.926,2.444,6.61,2.444,11.054
		s-0.761,8.296-2.277,11.554c-1.519,3.26-3.686,5.963-6.5,8.11c-2.815,2.149-6.185,3.741-10.109,4.777
		c-3.927,1.036-8.296,1.555-13.109,1.555c-4.888,0-9.129-0.538-12.72-1.611c-3.593-1.073-6.796-2.536-9.61-4.388
		c-1.333-0.889-2.593-1.333-3.777-1.333c-0.519,0-1.333,0.538-2.444,1.611c-1.111,1.075-1.963,2.389-2.555,3.944h-7.443v-30.44
		l7.333-0.667c0.295,3.555,1.222,6.777,2.777,9.665c1.555,2.889,3.61,5.352,6.166,7.388c2.555,2.038,5.61,3.63,9.166,4.777
		c3.555,1.149,7.479,1.722,11.776,1.722c6.294,0,11.109-1.237,14.442-3.716c3.333-2.477,4.999-6.377,4.999-11.703
		c0-1.701-0.519-3.142-1.555-4.326c-1.038-1.184-2.444-2.163-4.222-2.94c-1.777-0.776-3.815-1.423-6.11-1.941
		c-2.297-0.517-4.741-0.98-7.333-1.387c-2.593-0.406-5.204-0.832-7.832-1.276c-2.63-0.444-5.166-0.998-7.61-1.665
		c-3.333-0.887-6.332-1.978-8.999-3.272c-2.666-1.293-4.907-2.902-6.721-4.826c-1.815-1.923-3.222-4.253-4.222-6.988
		c-1-2.736-1.5-5.991-1.5-9.763c0-2.883,0.48-5.693,1.444-8.431c0.962-2.735,2.573-5.176,4.833-7.322
		c2.258-2.144,5.202-3.862,8.832-5.157c3.628-1.295,8.11-1.942,13.442-1.942c4.961,0,9.146,0.463,12.554,1.389
		c3.406,0.927,6.405,2.13,8.999,3.611c1.556,0.889,2.925,1.333,4.111,1.333c0.814,0,1.794-0.481,2.944-1.444
		c1.147-0.961,2.055-2.036,2.722-3.222h5.999V100.23z"/>
	<path d="M225.105,96.342l-7.777,0.445c-0.889-11.183-5.629-16.775-14.22-16.775h-24.886v26.885h12.665
		c4.444,0,6.999-4.48,7.666-13.442h6.999l-1.667,34.662h-6.776c-0.741-9.183-3.074-13.776-6.999-13.776h-11.888v30.884h20.886
		c12.443,0,19.331-7.924,20.664-23.774l7.999,0.777l-2.666,31.662h-73.768v-6.333c6.591,0,9.888-1.706,9.888-5.119V83.019
		c0-3.413-3.297-5.119-9.888-5.119v-6.555h73.768V96.342z"/>
</g>
</svg>
